<svg xmlns="http://www.w3.org/2000/svg" viewBox="0 0 400 200">
  <defs>
    <linearGradient id="bg" x1="0%" y1="0%" x2="100%" y2="100%">
      <stop offset="0%" style="stop-color:#1A2A0A"/>
      <stop offset="100%" style="stop-color:#3A6A1A"/>
    </linearGradient>
    <linearGradient id="glow" x1="0%" y1="0%" x2="100%" y2="100%">
      <stop offset="0%" style="stop-color:#8BC34A;stop-opacity:0.3"/>
      <stop offset="100%" style="stop-color:#8BC34A;stop-opacity:0"/>
    </linearGradient>
  </defs>
  <!-- Background -->
  <rect width="400" height="200" fill="url(#bg)"/>
  <!-- Decorative circles -->
  <circle cx="340" cy="30" r="80" fill="#8BC34A" opacity="0.08"/>
  <circle cx="60" cy="170" r="60" fill="#8BC34A" opacity="0.06"/>
  <circle cx="200" cy="100" r="120" fill="url(#glow)"/>
  <!-- Grid dots pattern -->
  <circle cx="20" cy="10" r="1.5" fill="white" opacity="0.08"/><circle cx="20" cy="40" r="1.5" fill="white" opacity="0.08"/><circle cx="20" cy="70" r="1.5" fill="white" opacity="0.08"/><circle cx="20" cy="100" r="1.5" fill="white" opacity="0.08"/><circle cx="20" cy="130" r="1.5" fill="white" opacity="0.08"/><circle cx="20" cy="160" r="1.5" fill="white" opacity="0.08"/><circle cx="20" cy="190" r="1.5" fill="white" opacity="0.08"/><circle cx="50" cy="10" r="1.5" fill="white" opacity="0.08"/><circle cx="50" cy="40" r="1.5" fill="white" opacity="0.08"/><circle cx="50" cy="70" r="1.5" fill="white" opacity="0.08"/><circle cx="50" cy="100" r="1.5" fill="white" opacity="0.08"/><circle cx="50" cy="130" r="1.5" fill="white" opacity="0.08"/><circle cx="50" cy="160" r="1.5" fill="white" opacity="0.08"/><circle cx="50" cy="190" r="1.5" fill="white" opacity="0.08"/><circle cx="80" cy="10" r="1.5" fill="white" opacity="0.08"/><circle cx="80" cy="40" r="1.5" fill="white" opacity="0.08"/><circle cx="80" cy="70" r="1.5" fill="white" opacity="0.08"/><circle cx="80" cy="100" r="1.5" fill="white" opacity="0.08"/><circle cx="80" cy="130" r="1.5" fill="white" opacity="0.08"/><circle cx="80" cy="160" r="1.5" fill="white" opacity="0.08"/><circle cx="80" cy="190" r="1.5" fill="white" opacity="0.08"/><circle cx="110" cy="10" r="1.5" fill="white" opacity="0.08"/><circle cx="110" cy="40" r="1.5" fill="white" opacity="0.08"/><circle cx="110" cy="70" r="1.5" fill="white" opacity="0.08"/><circle cx="110" cy="100" r="1.5" fill="white" opacity="0.08"/><circle cx="110" cy="130" r="1.5" fill="white" opacity="0.08"/><circle cx="110" cy="160" r="1.5" fill="white" opacity="0.08"/><circle cx="110" cy="190" r="1.5" fill="white" opacity="0.08"/><circle cx="140" cy="10" r="1.5" fill="white" opacity="0.08"/><circle cx="140" cy="40" r="1.5" fill="white" opacity="0.08"/><circle cx="140" cy="70" r="1.5" fill="white" opacity="0.08"/><circle cx="140" cy="100" r="1.5" fill="white" opacity="0.08"/><circle cx="140" cy="130" r="1.5" fill="white" opacity="0.08"/><circle cx="140" cy="160" r="1.5" fill="white" opacity="0.08"/><circle cx="140" cy="190" r="1.5" fill="white" opacity="0.08"/><circle cx="170" cy="10" r="1.5" fill="white" opacity="0.08"/><circle cx="170" cy="40" r="1.5" fill="white" opacity="0.08"/><circle cx="170" cy="70" r="1.5" fill="white" opacity="0.08"/><circle cx="170" cy="100" r="1.5" fill="white" opacity="0.08"/><circle cx="170" cy="130" r="1.5" fill="white" opacity="0.08"/><circle cx="170" cy="160" r="1.5" fill="white" opacity="0.08"/><circle cx="170" cy="190" r="1.5" fill="white" opacity="0.08"/><circle cx="200" cy="10" r="1.5" fill="white" opacity="0.08"/><circle cx="200" cy="40" r="1.5" fill="white" opacity="0.08"/><circle cx="200" cy="70" r="1.5" fill="white" opacity="0.08"/><circle cx="200" cy="100" r="1.5" fill="white" opacity="0.08"/><circle cx="200" cy="130" r="1.5" fill="white" opacity="0.08"/><circle cx="200" cy="160" r="1.5" fill="white" opacity="0.08"/><circle cx="200" cy="190" r="1.5" fill="white" opacity="0.08"/><circle cx="230" cy="10" r="1.5" fill="white" opacity="0.08"/><circle cx="230" cy="40" r="1.5" fill="white" opacity="0.08"/><circle cx="230" cy="70" r="1.5" fill="white" opacity="0.08"/><circle cx="230" cy="100" r="1.5" fill="white" opacity="0.08"/><circle cx="230" cy="130" r="1.5" fill="white" opacity="0.08"/><circle cx="230" cy="160" r="1.5" fill="white" opacity="0.08"/><circle cx="230" cy="190" r="1.5" fill="white" opacity="0.08"/><circle cx="260" cy="10" r="1.5" fill="white" opacity="0.08"/><circle cx="260" cy="40" r="1.5" fill="white" opacity="0.08"/><circle cx="260" cy="70" r="1.5" fill="white" opacity="0.08"/><circle cx="260" cy="100" r="1.5" fill="white" opacity="0.08"/><circle cx="260" cy="130" r="1.5" fill="white" opacity="0.08"/><circle cx="260" cy="160" r="1.5" fill="white" opacity="0.08"/><circle cx="260" cy="190" r="1.5" fill="white" opacity="0.08"/><circle cx="290" cy="10" r="1.5" fill="white" opacity="0.08"/><circle cx="290" cy="40" r="1.5" fill="white" opacity="0.08"/><circle cx="290" cy="70" r="1.5" fill="white" opacity="0.08"/><circle cx="290" cy="100" r="1.5" fill="white" opacity="0.08"/><circle cx="290" cy="130" r="1.5" fill="white" opacity="0.08"/><circle cx="290" cy="160" r="1.5" fill="white" opacity="0.08"/><circle cx="290" cy="190" r="1.5" fill="white" opacity="0.08"/><circle cx="320" cy="10" r="1.5" fill="white" opacity="0.08"/><circle cx="320" cy="40" r="1.5" fill="white" opacity="0.08"/><circle cx="320" cy="70" r="1.5" fill="white" opacity="0.08"/><circle cx="320" cy="100" r="1.5" fill="white" opacity="0.08"/><circle cx="320" cy="130" r="1.5" fill="white" opacity="0.08"/><circle cx="320" cy="160" r="1.5" fill="white" opacity="0.08"/><circle cx="320" cy="190" r="1.5" fill="white" opacity="0.08"/><circle cx="350" cy="10" r="1.5" fill="white" opacity="0.08"/><circle cx="350" cy="40" r="1.5" fill="white" opacity="0.08"/><circle cx="350" cy="70" r="1.5" fill="white" opacity="0.08"/><circle cx="350" cy="100" r="1.5" fill="white" opacity="0.08"/><circle cx="350" cy="130" r="1.5" fill="white" opacity="0.08"/><circle cx="350" cy="160" r="1.5" fill="white" opacity="0.08"/><circle cx="350" cy="190" r="1.5" fill="white" opacity="0.08"/><circle cx="380" cy="10" r="1.5" fill="white" opacity="0.08"/><circle cx="380" cy="40" r="1.5" fill="white" opacity="0.08"/><circle cx="380" cy="70" r="1.5" fill="white" opacity="0.08"/><circle cx="380" cy="100" r="1.5" fill="white" opacity="0.08"/><circle cx="380" cy="130" r="1.5" fill="white" opacity="0.08"/><circle cx="380" cy="160" r="1.5" fill="white" opacity="0.08"/><circle cx="380" cy="190" r="1.5" fill="white" opacity="0.08"/>
  <!-- Icon -->
  <g transform="translate(120,20)" fill="none" stroke="white" stroke-width="2.5" stroke-linecap="round">
  <rect x="0" y="90" width="25" height="60" rx="3"/>
  <rect x="35" y="60" width="25" height="90" rx="3"/>
  <rect x="70" y="30" width="25" height="120" rx="3"/>
  <rect x="105" y="50" width="25" height="100" rx="3"/>
  <polyline points="12,85 47,55 82,25 117,45" stroke-width="3"/>
  <circle cx="12" cy="85" r="4" fill="white"/>
  <circle cx="47" cy="55" r="4" fill="white"/>
  <circle cx="82" cy="25" r="4" fill="white"/>
  <circle cx="117" cy="45" r="4" fill="white"/>
</g>
  <!-- Label -->
  <text x="200" y="175" text-anchor="middle" font-family="system-ui,sans-serif" 
        font-size="13" font-weight="600" fill="white" opacity="0.7">BSc Data Science</text>
</svg>