<svg xmlns="http://www.w3.org/2000/svg" viewBox="0 0 400 200">
  <defs>
    <linearGradient id="bg" x1="0%" y1="0%" x2="100%" y2="100%">
      <stop offset="0%" style="stop-color:#1A1A0A"/>
      <stop offset="100%" style="stop-color:#F57F17"/>
    </linearGradient>
    <linearGradient id="glow" x1="0%" y1="0%" x2="100%" y2="100%">
      <stop offset="0%" style="stop-color:#FFB300;stop-opacity:0.3"/>
      <stop offset="100%" style="stop-color:#FFB300;stop-opacity:0"/>
    </linearGradient>
  </defs>
  <!-- Background -->
  <rect width="400" height="200" fill="url(#bg)"/>
  <!-- Decorative circles -->
  <circle cx="340" cy="30" r="80" fill="#FFB300" opacity="0.08"/>
  <circle cx="60" cy="170" r="60" fill="#FFB300" opacity="0.06"/>
  <circle cx="200" cy="100" r="120" fill="url(#glow)"/>
  <!-- Grid dots pattern -->
  <circle cx="20" cy="10" r="1.5" fill="white" opacity="0.08"/><circle cx="20" cy="40" r="1.5" fill="white" opacity="0.08"/><circle cx="20" cy="70" r="1.5" fill="white" opacity="0.08"/><circle cx="20" cy="100" r="1.5" fill="white" opacity="0.08"/><circle cx="20" cy="130" r="1.5" fill="white" opacity="0.08"/><circle cx="20" cy="160" r="1.5" fill="white" opacity="0.08"/><circle cx="20" cy="190" r="1.5" fill="white" opacity="0.08"/><circle cx="50" cy="10" r="1.5" fill="white" opacity="0.08"/><circle cx="50" cy="40" r="1.5" fill="white" opacity="0.08"/><circle cx="50" cy="70" r="1.5" fill="white" opacity="0.08"/><circle cx="50" cy="100" r="1.5" fill="white" opacity="0.08"/><circle cx="50" cy="130" r="1.5" fill="white" opacity="0.08"/><circle cx="50" cy="160" r="1.5" fill="white" opacity="0.08"/><circle cx="50" cy="190" r="1.5" fill="white" opacity="0.08"/><circle cx="80" cy="10" r="1.5" fill="white" opacity="0.08"/><circle cx="80" cy="40" r="1.5" fill="white" opacity="0.08"/><circle cx="80" cy="70" r="1.5" fill="white" opacity="0.08"/><circle cx="80" cy="100" r="1.5" fill="white" opacity="0.08"/><circle cx="80" cy="130" r="1.5" fill="white" opacity="0.08"/><circle cx="80" cy="160" r="1.5" fill="white" opacity="0.08"/><circle cx="80" cy="190" r="1.5" fill="white" opacity="0.08"/><circle cx="110" cy="10" r="1.5" fill="white" opacity="0.08"/><circle cx="110" cy="40" r="1.5" fill="white" opacity="0.08"/><circle cx="110" cy="70" r="1.5" fill="white" opacity="0.08"/><circle cx="110" cy="100" r="1.5" fill="white" opacity="0.08"/><circle cx="110" cy="130" r="1.5" fill="white" opacity="0.08"/><circle cx="110" cy="160" r="1.5" fill="white" opacity="0.08"/><circle cx="110" cy="190" r="1.5" fill="white" opacity="0.08"/><circle cx="140" cy="10" r="1.5" fill="white" opacity="0.08"/><circle cx="140" cy="40" r="1.5" fill="white" opacity="0.08"/><circle cx="140" cy="70" r="1.5" fill="white" opacity="0.08"/><circle cx="140" cy="100" r="1.5" fill="white" opacity="0.08"/><circle cx="140" cy="130" r="1.5" fill="white" opacity="0.08"/><circle cx="140" cy="160" r="1.5" fill="white" opacity="0.08"/><circle cx="140" cy="190" r="1.5" fill="white" opacity="0.08"/><circle cx="170" cy="10" r="1.5" fill="white" opacity="0.08"/><circle cx="170" cy="40" r="1.5" fill="white" opacity="0.08"/><circle cx="170" cy="70" r="1.5" fill="white" opacity="0.08"/><circle cx="170" cy="100" r="1.5" fill="white" opacity="0.08"/><circle cx="170" cy="130" r="1.5" fill="white" opacity="0.08"/><circle cx="170" cy="160" r="1.5" fill="white" opacity="0.08"/><circle cx="170" cy="190" r="1.5" fill="white" opacity="0.08"/><circle cx="200" cy="10" r="1.5" fill="white" opacity="0.08"/><circle cx="200" cy="40" r="1.5" fill="white" opacity="0.08"/><circle cx="200" cy="70" r="1.5" fill="white" opacity="0.08"/><circle cx="200" cy="100" r="1.5" fill="white" opacity="0.08"/><circle cx="200" cy="130" r="1.5" fill="white" opacity="0.08"/><circle cx="200" cy="160" r="1.5" fill="white" opacity="0.08"/><circle cx="200" cy="190" r="1.5" fill="white" opacity="0.08"/><circle cx="230" cy="10" r="1.5" fill="white" opacity="0.08"/><circle cx="230" cy="40" r="1.5" fill="white" opacity="0.08"/><circle cx="230" cy="70" r="1.5" fill="white" opacity="0.08"/><circle cx="230" cy="100" r="1.5" fill="white" opacity="0.08"/><circle cx="230" cy="130" r="1.5" fill="white" opacity="0.08"/><circle cx="230" cy="160" r="1.5" fill="white" opacity="0.08"/><circle cx="230" cy="190" r="1.5" fill="white" opacity="0.08"/><circle cx="260" cy="10" r="1.5" fill="white" opacity="0.08"/><circle cx="260" cy="40" r="1.5" fill="white" opacity="0.08"/><circle cx="260" cy="70" r="1.5" fill="white" opacity="0.08"/><circle cx="260" cy="100" r="1.5" fill="white" opacity="0.08"/><circle cx="260" cy="130" r="1.5" fill="white" opacity="0.08"/><circle cx="260" cy="160" r="1.5" fill="white" opacity="0.08"/><circle cx="260" cy="190" r="1.5" fill="white" opacity="0.08"/><circle cx="290" cy="10" r="1.5" fill="white" opacity="0.08"/><circle cx="290" cy="40" r="1.5" fill="white" opacity="0.08"/><circle cx="290" cy="70" r="1.5" fill="white" opacity="0.08"/><circle cx="290" cy="100" r="1.5" fill="white" opacity="0.08"/><circle cx="290" cy="130" r="1.5" fill="white" opacity="0.08"/><circle cx="290" cy="160" r="1.5" fill="white" opacity="0.08"/><circle cx="290" cy="190" r="1.5" fill="white" opacity="0.08"/><circle cx="320" cy="10" r="1.5" fill="white" opacity="0.08"/><circle cx="320" cy="40" r="1.5" fill="white" opacity="0.08"/><circle cx="320" cy="70" r="1.5" fill="white" opacity="0.08"/><circle cx="320" cy="100" r="1.5" fill="white" opacity="0.08"/><circle cx="320" cy="130" r="1.5" fill="white" opacity="0.08"/><circle cx="320" cy="160" r="1.5" fill="white" opacity="0.08"/><circle cx="320" cy="190" r="1.5" fill="white" opacity="0.08"/><circle cx="350" cy="10" r="1.5" fill="white" opacity="0.08"/><circle cx="350" cy="40" r="1.5" fill="white" opacity="0.08"/><circle cx="350" cy="70" r="1.5" fill="white" opacity="0.08"/><circle cx="350" cy="100" r="1.5" fill="white" opacity="0.08"/><circle cx="350" cy="130" r="1.5" fill="white" opacity="0.08"/><circle cx="350" cy="160" r="1.5" fill="white" opacity="0.08"/><circle cx="350" cy="190" r="1.5" fill="white" opacity="0.08"/><circle cx="380" cy="10" r="1.5" fill="white" opacity="0.08"/><circle cx="380" cy="40" r="1.5" fill="white" opacity="0.08"/><circle cx="380" cy="70" r="1.5" fill="white" opacity="0.08"/><circle cx="380" cy="100" r="1.5" fill="white" opacity="0.08"/><circle cx="380" cy="130" r="1.5" fill="white" opacity="0.08"/><circle cx="380" cy="160" r="1.5" fill="white" opacity="0.08"/><circle cx="380" cy="190" r="1.5" fill="white" opacity="0.08"/>
  <!-- Icon -->
  <g transform="translate(140,25)" fill="none" stroke="white" stroke-width="2.5" stroke-linecap="round">
  <rect x="15" y="5" width="90" height="110" rx="6"/>
  <line x1="30" y1="30" x2="90" y2="30"/>
  <line x1="30" y1="50" x2="90" y2="50"/>
  <line x1="30" y1="70" x2="75" y2="70"/>
  <line x1="30" y1="90" x2="80" y2="90"/>
  <circle cx="90" cy="95" r="18" fill="#F57F17" stroke="white"/>
  <polyline points="82,95 88,102 100,88" stroke-width="3"/>
</g>
  <!-- Label -->
  <text x="200" y="175" text-anchor="middle" font-family="system-ui,sans-serif" 
        font-size="13" font-weight="600" fill="white" opacity="0.7">Project</text>
</svg>